<svg version="1.1" xmlns="http://www.w3.org/2000/svg" xmlns:xlink="http://www.w3.org/1999/xlink">
<defs>
    <symbol id="icon-close" viewBox="0 0 32 32">
        <title>close</title>
        <path xmlns="http://www.w3.org/2000/svg"
              d="M24.4 7.613c-0.52-0.52-1.36-0.52-1.88 0l-6.52 6.507-6.52-6.52c-0.52-0.52-1.36-0.52-1.88 0s-0.52 1.36 0 1.88l6.52 6.52-6.52 6.52c-0.52 0.52-0.52 1.36 0 1.88s1.36 0.52 1.88 0l6.52-6.52 6.52 6.52c0.52 0.52 1.36 0.52 1.88 0s0.52-1.36 0-1.88l-6.52-6.52 6.52-6.52c0.507-0.507 0.507-1.36 0-1.867z"/>
    </symbol>
</defs>
</svg>
